<?xml version="1.0" encoding="utf-8"?>
<!-- Generator: Adobe Illustrator 27.5.0, SVG Export Plug-In . SVG Version: 6.00 Build 0)  -->
<svg version="1.1" xmlns="http://www.w3.org/2000/svg" xmlns:xlink="http://www.w3.org/1999/xlink" x="0px" y="0px"
	 viewBox="0 0 800 800" style="enable-background:new 0 0 800 800;" xml:space="preserve">
<g id="Layer_1">
	<g>
		<g>
			
				<text transform="matrix(1 0 0 1 251.5903 548.8096)" style="font-family:'Nunito-Regular'; font-size:28.1266px; letter-spacing:5;">Company slogan</text>
			<text transform="matrix(1 0 0 1 231.3022 518.1885)" style="font-family:'Nunito-Bold'; font-size:49.2013px;">Shomi Market</text>
		</g>
		<g>
			<g>
				<g>
					<path style="fill:#F7941D;" d="M507.952,342.361c-0.531-7.61-1.827-14.987-3.836-22.065c-61.983,0-56.66,0-86.606,0v22.065
						h62.654c0.46,4.931,0.489,10.032,0,15.283H417.51v22.063h57.345c-22.732,56.641-97.326,68.646-136.398,22.124h-33.451
						c22.537,41.264,68.234,62.285,112.504,54.988C472.036,447.983,511.911,398.946,507.952,342.361L507.952,342.361z"/>
					<path style="fill:#1C75BC;" d="M382.586,379.707v-22.063h-62.655c-0.478-5.151-0.464-10.28,0-15.283h62.655v-22.065h-57.344
						c22.112-56.107,96.886-68.852,136.397-22.065h33.453c-54.792-100.321-211.171-58.049-203.007,59.414
						c0.532,7.609,1.831,14.984,3.895,22.063C357.965,379.707,352.641,379.707,382.586,379.707z"/>
				</g>
			</g>
			<g style="opacity:0.4;">
				<ellipse style="opacity:0;fill:#BCBEC0;" cx="400" cy="462.246" rx="118.883" ry="6.554"/>
				<path style="opacity:0.0244;fill:#B8BABD;" d="M400,455.762c-64.347,0-116.516,2.874-116.516,6.423
					c0,3.55,52.169,6.423,116.516,6.423c64.343,0,116.515-2.873,116.515-6.423C516.515,458.636,464.343,455.762,400,455.762z"/>
				<path style="opacity:0.0488;fill:#B5B7B9;" d="M400,455.831c-63.039,0-114.147,2.816-114.147,6.293
					c0,3.477,51.108,6.293,114.147,6.293c63.034,0,114.146-2.816,114.146-6.293C514.146,458.647,463.034,455.831,400,455.831z"/>
				<path style="opacity:0.0732;fill:#B1B3B6;" d="M400,455.901c-61.731,0-111.779,2.757-111.779,6.161
					c0,3.405,50.048,6.163,111.779,6.163c61.727,0,111.779-2.758,111.779-6.163C511.779,458.658,461.727,455.901,400,455.901z"/>
				<path style="opacity:0.0976;fill:#AEB0B2;" d="M400,455.971c-60.423,0-109.411,2.698-109.411,6.031
					c0,3.332,48.988,6.031,109.411,6.031c60.419,0,109.41-2.699,109.41-6.031C509.41,458.669,460.419,455.971,400,455.971z"/>
				<path style="opacity:0.122;fill:#AAACAF;" d="M400,456.04c-59.115,0-107.043,2.641-107.043,5.9
					c0,3.261,47.927,5.901,107.043,5.901c59.111,0,107.042-2.641,107.042-5.901C507.042,458.681,459.111,456.04,400,456.04z"/>
				<ellipse style="opacity:0.1463;fill:#A7A9AB;" cx="400" cy="461.88" rx="104.675" ry="5.771"/>
				<path style="opacity:0.1707;fill:#A3A5A8;" d="M400,456.179c-56.5,0-102.307,2.523-102.307,5.64
					c0,3.117,45.807,5.641,102.307,5.641c56.495,0,102.306-2.524,102.306-5.641C502.306,458.702,456.495,456.179,400,456.179z"/>
				<path style="opacity:0.1951;fill:#A0A2A4;" d="M400,456.248c-55.192,0-99.939,2.465-99.939,5.509
					c0,3.044,44.747,5.51,99.939,5.51c55.188,0,99.938-2.466,99.938-5.51C499.938,458.713,455.188,456.248,400,456.248z"/>
				<ellipse style="opacity:0.2195;fill:#9C9EA1;" cx="400" cy="461.696" rx="97.57" ry="5.379"/>
				<path style="opacity:0.2439;fill:#999B9E;" d="M400,456.388c-52.576,0-95.203,2.348-95.203,5.247
					c0,2.9,42.626,5.249,95.203,5.249c52.572,0,95.202-2.349,95.202-5.249C495.202,458.735,452.572,456.388,400,456.388z"/>
				<path style="opacity:0.2683;fill:#96989A;" d="M400,456.457c-51.269,0-92.834,2.289-92.834,5.116
					c0,2.829,41.565,5.119,92.834,5.119c51.265,0,92.834-2.29,92.834-5.119C492.834,458.746,451.265,456.457,400,456.457z"/>
				<path style="opacity:0.2927;fill:#929497;" d="M399.999,456.526c-49.96,0-90.466,2.231-90.466,4.986
					c0,2.756,40.505,4.987,90.466,4.987c49.958,0,90.465-2.231,90.465-4.987C490.465,458.758,449.957,456.526,399.999,456.526z"/>
				<path style="opacity:0.3171;fill:#8F9194;" d="M400,456.596c-48.653,0-88.098,2.173-88.098,4.855
					c0,2.685,39.445,4.857,88.098,4.857c48.648,0,88.098-2.173,88.098-4.857C488.098,458.769,448.648,456.596,400,456.596z"/>
				<path style="opacity:0.3415;fill:#8C8E90;" d="M400,456.666c-47.345,0-85.73,2.113-85.73,4.725
					c0,2.612,38.385,4.727,85.73,4.727c47.342,0,85.729-2.114,85.729-4.727C485.729,458.779,447.342,456.666,400,456.666z"/>
				<path style="opacity:0.3659;fill:#898A8D;" d="M400,456.735c-46.037,0-83.361,2.055-83.361,4.594
					c0,2.54,37.324,4.597,83.361,4.597c46.033,0,83.361-2.057,83.361-4.597C483.361,458.79,446.033,456.735,400,456.735z"/>
				<path style="opacity:0.3902;fill:#85878A;" d="M400,456.805c-44.73,0-80.994,1.996-80.994,4.463
					c0,2.469,36.265,4.467,80.994,4.467c44.725,0,80.993-1.998,80.993-4.467C480.993,458.801,444.725,456.805,400,456.805z"/>
				<path style="opacity:0.4146;fill:#828487;" d="M400,456.874c-43.422,0-78.626,1.939-78.626,4.333
					c0,2.396,35.204,4.336,78.626,4.336c43.418,0,78.625-1.94,78.625-4.336C478.625,458.813,443.418,456.874,400,456.874z"/>
				<path style="opacity:0.439;fill:#7F8183;" d="M400,456.943c-42.114,0-76.257,1.881-76.257,4.203
					c0,2.323,34.143,4.205,76.257,4.205c42.109,0,76.258-1.882,76.258-4.205C476.258,458.824,442.109,456.943,400,456.943z"/>
				<path style="opacity:0.4634;fill:#7C7D80;" d="M400,457.013c-40.806,0-73.89,1.822-73.89,4.072
					c0,2.251,33.084,4.074,73.89,4.074c40.802,0,73.889-1.823,73.889-4.074C473.889,458.835,440.802,457.013,400,457.013z"/>
				<path style="opacity:0.4878;fill:#787A7D;" d="M400,457.082c-39.499,0-71.522,1.764-71.522,3.941
					c0,2.18,32.023,3.944,71.522,3.944c39.494,0,71.52-1.765,71.52-3.944C471.52,458.846,439.494,457.082,400,457.082z"/>
				<path style="opacity:0.5122;fill:#757779;" d="M400,457.152c-38.19,0-69.153,1.704-69.153,3.811
					c0,2.107,30.962,3.814,69.153,3.814c38.186,0,69.152-1.706,69.152-3.814C469.152,458.856,438.186,457.152,400,457.152z"/>
				<path style="opacity:0.5366;fill:#727376;" d="M400,457.221c-36.883,0-66.785,1.647-66.785,3.681
					c0,2.035,29.902,3.683,66.785,3.683c36.879,0,66.785-1.648,66.785-3.683C466.785,458.868,436.879,457.221,400,457.221z"/>
				<path style="opacity:0.561;fill:#6F7072;" d="M400,457.291c-35.575,0-64.417,1.588-64.417,3.549
					c0,1.964,28.842,3.553,64.417,3.553c35.57,0,64.416-1.589,64.416-3.553C464.416,458.879,435.57,457.291,400,457.291z"/>
				<path style="opacity:0.5854;fill:#6B6C6F;" d="M400,457.36c-34.267,0-62.049,1.529-62.049,3.419
					c0,1.892,27.782,3.422,62.049,3.422c34.263,0,62.049-1.53,62.049-3.422C462.049,458.89,434.263,457.36,400,457.36z"/>
				<path style="opacity:0.6098;fill:#68696B;" d="M400,457.43c-32.959,0-59.681,1.471-59.681,3.289
					c0,1.818,26.722,3.291,59.681,3.291c32.955,0,59.68-1.473,59.68-3.291C459.68,458.9,432.955,457.43,400,457.43z"/>
				<path style="opacity:0.6341;fill:#646568;" d="M400,457.5c-31.651,0-57.313,1.412-57.313,3.157
					c0,1.747,25.661,3.161,57.313,3.161c31.647,0,57.313-1.414,57.313-3.161C457.313,458.912,431.647,457.5,400,457.5z"/>
				<path style="opacity:0.6585;fill:#616264;" d="M400,457.569c-30.344,0-54.944,1.354-54.944,3.026
					c0,1.675,24.601,3.031,54.944,3.031c30.34,0,54.944-1.357,54.944-3.031C454.944,458.923,430.34,457.569,400,457.569z"/>
				<path style="opacity:0.6829;fill:#5D5E60;" d="M400,457.639c-29.036,0-52.576,1.295-52.576,2.896c0,1.603,23.541,2.9,52.576,2.9
					c29.031,0,52.576-1.298,52.576-2.9C452.576,458.934,429.031,457.639,400,457.639z"/>
				<path style="opacity:0.7073;fill:#595A5C;" d="M400,457.708c-27.728,0-50.208,1.237-50.208,2.766
					c0,1.531,22.48,2.771,50.208,2.771c27.724,0,50.208-1.239,50.208-2.771C450.208,458.945,427.724,457.708,400,457.708z"/>
				<path style="opacity:0.7317;fill:#555658;" d="M400,457.777c-26.42,0-47.84,1.179-47.84,2.635c0,1.459,21.42,2.64,47.84,2.64
					c26.416,0,47.84-1.181,47.84-2.64C447.84,458.956,426.416,457.777,400,457.777z"/>
				<path style="opacity:0.7561;fill:#525254;" d="M400,457.847c-25.112,0-45.472,1.12-45.472,2.505
					c0,1.387,20.36,2.509,45.472,2.509c25.108,0,45.472-1.122,45.472-2.509C445.472,458.967,425.108,457.847,400,457.847z"/>
				<path style="opacity:0.7805;fill:#4E4E50;" d="M400,457.916c-23.804,0-43.104,1.063-43.104,2.374
					c0,1.314,19.3,2.378,43.104,2.378c23.801,0,43.103-1.064,43.103-2.378C443.103,458.978,423.801,457.916,400,457.916z"/>
				<path style="opacity:0.8049;fill:#4A4A4C;" d="M400,457.986c-22.497,0-40.735,1.003-40.735,2.243
					c0,1.242,18.239,2.248,40.735,2.248c22.492,0,40.736-1.006,40.736-2.248C440.736,458.989,422.492,457.986,400,457.986z"/>
				<path style="opacity:0.8293;fill:#464547;" d="M400,458.056c-21.189,0-38.368,0.944-38.368,2.112
					c0,1.171,17.179,2.117,38.368,2.117c21.185,0,38.367-0.946,38.367-2.117C438.367,459,421.185,458.056,400,458.056z"/>
				<path style="opacity:0.8537;fill:#414143;" d="M400,458.125c-19.881,0-36,0.886-36,1.982c0,1.099,16.118,1.986,36,1.986
					c19.877,0,36-0.888,36-1.986C436,459.011,419.877,458.125,400,458.125z"/>
				<path style="opacity:0.878;fill:#3B3A3C;" d="M400,458.194c-18.573,0-33.632,0.828-33.632,1.852
					c0,1.026,15.059,1.856,33.632,1.856c18.569,0,33.631-0.83,33.631-1.856C433.631,459.022,418.569,458.194,400,458.194z"/>
				<path style="opacity:0.9024;fill:#323233;" d="M400,458.264c-17.266,0-31.263,0.77-31.263,1.721
					c0,0.954,13.998,1.727,31.263,1.727c17.262,0,31.264-0.772,31.264-1.727C431.264,459.033,417.262,458.264,400,458.264z"/>
				<path style="opacity:0.9268;fill:#29292A;" d="M400,458.333c-15.958,0-28.896,0.711-28.896,1.591
					c0,0.882,12.938,1.596,28.896,1.596c15.954,0,28.895-0.714,28.895-1.596C428.895,459.044,415.954,458.333,400,458.333z"/>
				<path style="opacity:0.9512;fill:#1F1E1F;" d="M400,458.402c-14.65,0-26.527,0.652-26.527,1.46
					c0,0.811,11.877,1.465,26.527,1.465c14.645,0,26.527-0.654,26.527-1.465C426.527,459.055,414.645,458.402,400,458.402z"/>
				<path style="opacity:0.9756;fill:#121112;" d="M400,458.473c-13.342,0-24.159,0.594-24.159,1.329
					c0,0.738,10.817,1.334,24.159,1.334c13.338,0,24.159-0.596,24.159-1.334C424.159,459.066,413.338,458.473,400,458.473z"/>
				<path d="M400,458.542c-12.034,0-21.791,0.535-21.791,1.198c0,0.666,9.757,1.204,21.791,1.204c12.03,0,21.791-0.538,21.791-1.204
					C421.791,459.077,412.03,458.542,400,458.542z"/>
			</g>
		</g>
	</g>
</g>
<g id="Layer_2" style="display:none;">
</g>
</svg>
